<?xml version="1.0" standalone="no"?>
<!DOCTYPE svg PUBLIC "-//W3C//DTD SVG 20010904//EN"
 "http://www.w3.org/TR/2001/REC-SVG-20010904/DTD/svg10.dtd">
<svg version="1.0" xmlns="http://www.w3.org/2000/svg"
 width="600.000000pt" height="600.000000pt" viewBox="0 0 600.000000 600.000000"
 preserveAspectRatio="xMidYMid meet">

<g transform="translate(0.000000,600.000000) scale(0.100000,-0.100000)"
fill="#000000" stroke="none">
<path d="M3184 5717 c-1 -134 -5 -166 -31 -267 -56 -213 -154 -411 -256 -518
-67 -70 -79 -74 -202 -60 -101 11 -267 2 -318 -18 -37 -14 -202 177 -313 363
-69 114 -118 231 -137 326 l-13 61 -47 -44 c-142 -130 -248 -587 -251 -1075
l-1 -201 -37 -43 c-66 -78 -168 -300 -168 -367 0 -18 12 -81 26 -141 14 -59
26 -134 27 -166 2 -75 -5 -81 -160 -137 -544 -198 -583 -219 -599 -327 -15
-103 41 -306 116 -419 27 -40 40 -70 40 -95 1 -107 60 -350 110 -448 40 -79
91 -120 207 -166 139 -54 189 -83 238 -138 61 -67 72 -122 57 -280 -21 -212
-81 -427 -166 -593 -58 -115 -73 -136 -147 -210 l-61 -62 16 -30 c48 -92 251
-218 415 -256 58 -13 59 -13 65 8 14 52 5 191 -20 307 -44 203 -28 273 78 349
99 72 217 60 301 -29 155 -166 138 -411 -36 -511 -29 -16 -49 -30 -46 -30 4 0
46 11 93 25 228 66 329 165 329 323 -1 165 -88 335 -362 696 -61 82 -121 166
-132 188 l-20 38 23 9 c13 4 97 34 188 66 281 99 401 157 465 226 24 25 26 30
10 25 -96 -37 -463 -112 -689 -142 -236 -31 -381 4 -422 102 -25 61 -28 60
130 56 159 -5 263 6 436 44 282 63 590 197 675 294 l20 23 -20 -8 c-67 -27
-318 -99 -420 -120 -467 -96 -748 -32 -1003 227 l-63 65 60 36 c141 87 280
288 289 417 5 73 -12 104 -71 130 -52 23 -200 43 -272 38 -30 -2 -55 -2 -55 2
0 3 48 25 107 49 206 82 408 187 462 240 83 80 80 130 -15 272 -64 97 -67 120
-22 209 34 69 133 177 187 204 32 17 34 17 58 -6 13 -12 40 -55 59 -94 50
-101 57 -191 21 -306 -53 -171 -192 -343 -352 -439 -41 -24 -45 -28 -20 -23
126 28 222 81 321 179 101 99 129 153 161 309 53 255 143 421 260 480 88 44
222 -6 264 -98 22 -49 24 -93 6 -163 l-13 -50 80 -48 c45 -27 145 -88 222
-136 l142 -88 163 -4 c129 -4 182 -9 249 -27 484 -128 668 -539 535 -1195
-137 -675 -612 -1420 -1185 -1859 -222 -170 -436 -279 -649 -330 l-95 -23 84
-13 c168 -24 238 -29 410 -25 297 6 524 59 790 186 344 165 645 433 894 797
43 62 81 110 85 107 15 -9 119 -230 155 -331 20 -55 54 -159 74 -231 l38 -130
26 61 c15 34 51 115 81 181 166 369 253 722 299 1220 19 212 16 719 -5 875
-61 434 -206 796 -431 1076 -106 132 -224 233 -371 319 -12 8 -21 37 -31 110
-63 435 -250 850 -504 1118 -133 140 -289 237 -383 237 l-32 0 -1 -153z m325
-327 c183 -349 244 -925 111 -1045 -17 -15 -21 -14 -71 24 -62 47 -206 113
-300 138 l-64 16 0 88 c0 83 -2 91 -42 170 l-43 83 31 30 c70 69 113 177 190
480 l53 210 42 -48 c23 -26 65 -92 93 -146z m-1618 -118 c19 -131 80 -280 154
-377 l37 -48 -45 -63 c-63 -92 -195 -249 -267 -319 l-62 -60 6 140 c17 362 68
664 138 813 22 46 23 46 25 17 2 -16 8 -63 14 -103z"/>
<path d="M2415 3910 c-29 -11 -89 -54 -143 -100 -94 -81 -124 -97 -166 -86
-22 5 -25 2 -36 -45 -28 -117 19 -252 133 -382 l33 -38 0 55 c-1 98 50 133
336 227 172 56 321 119 363 152 19 16 19 16 -10 17 -33 0 -59 16 -163 102
-126 105 -246 139 -347 98z"/>
</g>
</svg>
